<svg width="110" height="51" viewBox="0 0 110 51" fill="none" xmlns="http://www.w3.org/2000/svg">
<path id="Vector 16 (Stroke)" fill-rule="evenodd" clip-rule="evenodd" d="M64.0371 13.2957C50.2039 6.18757 34.5108 1.89988 14.5 2.00337L0 1.50342V1.00341L14.5 0.00338742C34.8887 -0.102061 51.2638 2.23499 65.8652 9.73789C79.3984 16.6919 91.2349 27.572 103.279 43.4891L105.379 30.4135C105.554 29.3229 106.58 28.5808 107.671 28.7559C108.762 28.9311 109.504 29.9572 109.329 31.0478L106.474 48.82C106.299 49.9106 105.273 50.6527 104.182 50.4776L86.4102 47.6233C85.3196 47.4482 84.5775 46.4221 84.7526 45.3315C84.9278 44.2409 85.9539 43.4988 87.0445 43.674L99.9742 45.7505C88.1996 30.2204 76.8277 19.8681 64.0371 13.2957Z" fill="url(#paint0_linear_6_155)"/>
<defs>
<linearGradient id="paint0_linear_6_155" x1="15.8971" y1="3.18148" x2="74.2961" y2="73.5639" gradientUnits="userSpaceOnUse">
<stop stop-color="#31354A"/>
<stop offset="0.502723" stop-color="#30D3CE"/>
<stop offset="1" stop-color="#1FEBB0"/>
</linearGradient>
</defs>
</svg>
