<svg width="110" height="51" viewBox="0 0 110 51" fill="none" xmlns="http://www.w3.org/2000/svg">
<path id="Vector 16 (Stroke)" fill-rule="evenodd" clip-rule="evenodd" d="M64.0371 37.2075C50.2039 44.3156 34.5108 48.6033 14.5 48.4998L0 48.9998V49.4998L14.5 50.4998C34.8887 50.6052 51.2638 48.2682 65.8652 40.7653C79.3984 33.8113 91.2349 22.9311 103.279 7.01412L105.379 20.0897C105.554 21.1803 106.58 21.9224 107.671 21.7472C108.762 21.5721 109.504 20.546 109.329 19.4554L106.474 1.68313C106.299 0.592537 105.273 -0.149574 104.182 0.0255737L86.4102 2.87983C85.3196 3.05498 84.5775 4.08107 84.7526 5.17166C84.9278 6.26226 85.9539 7.00437 87.0445 6.82922L99.9742 4.75269C88.1996 20.2828 76.8277 30.6351 64.0371 37.2075Z" fill="url(#paint0_linear_6_156)"/>
<defs>
<linearGradient id="paint0_linear_6_156" x1="15.8971" y1="47.3217" x2="74.2961" y2="-23.0607" gradientUnits="userSpaceOnUse">
<stop stop-color="#31354A"/>
<stop offset="0.502723" stop-color="#30D3CE"/>
<stop offset="1" stop-color="#1FEBB0"/>
</linearGradient>
</defs>
</svg>
